{"title":"Predestination 2014 BRRip x264 AAC-MiLLENiUM","uid":11553046,"size":765431474,"categoryP":"video","categoryS":"movies","magnet":"?xt=urn:btih:258dcf0fbf07cfbbfcd110a0f0128da2e4e6038e&amp;dn=Predestination+2014+BRRip+x264+AAC-MiLLENiUM&amp;tr=udp%3A%2F%2Ftracker.openbittorrent.com%3A80&amp;tr=udp%3A%2F%2Fopen.demonii.com%3A1337&amp;tr=udp%3A%2F%2Ftracker.coppersurfer.tk%3A6969&amp;tr=udp%3A%2F%2Fexodus.desync.com%3A6969","seeders":1,"leechers":0,"uploader":"TvTeam","files":4,"time":1416794380,"description":" &lt;a href=&quot;http://www.torrenting.com&quot; rel=&quot;nofollow&quot; target=&quot;_NEW&quot;&gt;http://www.torrenting.com&lt;/a&gt;\n\nSign up is OPEN - for time being. Come and have fun.\n\n------------------------------------------------------------------[img]http://s2.postimg.org/u6zhpvtjd/MV5_BMj_E3_Nj_M5_Njk1_Nl5_BMl5_Ban_Bn_Xk_Ft_ZTgw_MTg1_MDUy_Mj_E.jpg[/img]\n \n[color=red][b]Predestination 2014 BRRip x264 AAC-MiLLENiUM[/b][/color]\n\n[color=red]General[/color]\n\nSource...............: 720p.BluRay.x264.DTS-CHD [THANKS]\nIMDb Information.... : http://www.imdb.com/title/tt2397535/\nSample Included......: yes\n\nGeneral\nComplete name                            : Predestination 2014 BRRip x264 AAC-MiLLENiUM.mp4\nFormat                                   : MPEG-4\nFormat profile                           : Base Media\nCodec ID                                 : isom\nFile size                                : 709 MiB\nDuration                                 : 1h 37mn\nOverall bit rate mode                    : Variable\nOverall bit rate                         : 1 014 Kbps\nEncoded date                             : UTC 2014-11-23 20:04:26\nTagged date                              : UTC 2014-11-23 20:04:26\n\nVideo\nID                                       : 1\nFormat                                   : AVC\nFormat/Info                              : Advanced Video Codec\nFormat profile                           : &lt;a class=&quot;__cf_email__&quot; href=&quot;/cdn-cgi/l/email-protection&quot; data-cfemail=&quot;0d45646a654d4139233c&quot;&gt;[email&amp;#160;protected]&lt;/a&gt;&lt;script cf-hash='f9e31' type=&quot;text/javascript&quot;&gt;\n/* &lt;![CDATA[ */!function(){try{var t=&quot;currentScript&quot;in document?document.currentScript:function(){for(var t=document.getElementsByTagName(&quot;script&quot;),e=t.length;e--;)if(t[e].getAttribute(&quot;cf-hash&quot;))return t[e]}();if(t&amp;&amp;t.previousSibling){var e,r,n,i,c=t.previousSibling,a=c.getAttribute(&quot;data-cfemail&quot;);if(a){for(e=&quot;&quot;,r=parseInt(a.substr(0,2),16),n=2;a.length-n;n+=2)i=parseInt(a.substr(n,2),16)^r,e+=String.fromCharCode(i);e=document.createTextNode(e),c.parentNode.replaceChild(e,c)}}}catch(u){}}();/* ]]&gt; */&lt;/script&gt;\nFormat settings, CABAC                   : Yes\nFormat settings, ReFrames                : 3 frames\nCodec ID                                 : avc1\nCodec ID/Info                            : Advanced Video Coding\nDuration                                 : 1h 37mn\nBit rate mode                            : Variable\nBit rate                                 : 695 Kbps\nMaximum bit rate                         : 40.0 Mbps\nWidth                                    : 720 pixels\nHeight                                   : 304 pixels\nDisplay aspect ratio                     : 2.35:1\nFrame rate mode                          : Constant\nFrame rate                               : 23.976 fps\nColor space                              : YUV\nChroma subsampling                       : 4:2:0\nBit depth                                : 8 bits\nScan type                                : Progressive\nBits/(Pixel*Frame)                       : 0.132\nStream size                              : 486 MiB (69%)\nWriting library                          : x264 core 142 r2479 dd79a61\nColor range                              : Full\n\nAudio\nID                                       : 2\nFormat                                   : AAC\nFormat/Info                              : Advanced Audio Codec\nFormat profile                           : LC\nCodec ID                                 : 40\nDuration                                 : 1h 37mn\nBit rate mode                            : Variable\nBit rate                                 : 315 Kbps\nMaximum bit rate                         : 385 Kbps\nChannel(s)                               : 6 channels\nChannel positions                        : Front: L C R, Side: L R, LFE\nSampling rate                            : 48.0 KHz\nCompression mode                         : Lossy\nStream size                              : 220 MiB (31%)\nLanguage                                 : English\nEncoded date                             : UTC 2014-11-23 19:22:46\nTagged date                              : UTC 2014-11-23 20:04:54\n\n[color=red]Plot[/color]\n\nThe life of a time-traveling Temporal Agent. On his final assignment, he must pursue the one criminal that has eluded him throughout time.\n \n[color=red]Screenshots[/color]\n\n[img]http://s24.postimg.org/msp03lqmd/vlcsnap_2014_11_23_20h08m26s145.jpg[/img]\n[img]http://s24.postimg.org/68rbhd1c5/vlcsnap_2014_11_23_20h08m30s184.jpg[/img]\n[img]http://s24.postimg.org/jad077pqd/vlcsnap_2014_11_23_20h09m14s114.jpg[/img]\n[img]http://s24.postimg.org/agm3q42rp/vlcsnap_2014_11_23_20h10m00s46.jpg[/img]\n[img]http://s24.postimg.org/8elmbv4sl/vlcsnap_2014_11_23_20h10m36s166.jpg[/img]","torrent":{"xt":"urn:btih:258dcf0fbf07cfbbfcd110a0f0128da2e4e6038e","amp;dn":"Predestination+2014+BRRip+x264+AAC-MiLLENiUM","amp;tr":["udp%3A%2F%2Ftracker.openbittorrent.com%3A80","udp%3A%2F%2Fopen.demonii.com%3A1337","udp%3A%2F%2Ftracker.coppersurfer.tk%3A6969","udp%3A%2F%2Fexodus.desync.com%3A6969"],"infoHash":"258dcf0fbf07cfbbfcd110a0f0128da2e4e6038e","infoHashBuffer":{"type":"Buffer","data":[37,141,207,15,191,7,207,187,252,209,16,160,240,18,141,162,228,230,3,142]},"announce":[],"urlList":[]}}